<svg width="19" height="19" viewBox="0 0 19 19" fill="none" xmlns="http://www.w3.org/2000/svg">
<path d="M5.83377 8.66667L9.1671 1.16667C9.83014 1.16667 10.466 1.43006 10.9349 1.8989C11.4037 2.36775 11.6671 3.00363 11.6671 3.66667V7H16.3838C16.6254 6.99727 16.8647 7.04709 17.0851 7.14602C17.3055 7.24495 17.5018 7.39062 17.6603 7.57293C17.8189 7.75525 17.9359 7.96986 18.0032 8.20188C18.0706 8.43391 18.0867 8.6778 18.0504 8.91667L16.9004 16.4167C16.8402 16.8141 16.6383 17.1763 16.332 17.4367C16.0257 17.697 15.6357 17.8379 15.2338 17.8333H5.83377M5.83377 8.66667V17.8333M5.83377 8.66667H3.33377C2.89174 8.66667 2.46781 8.84227 2.15525 9.15483C1.84269 9.46739 1.6671 9.89131 1.6671 10.3333V16.1667C1.6671 16.6087 1.84269 17.0326 2.15525 17.3452C2.46781 17.6577 2.89174 17.8333 3.33377 17.8333H5.83377" stroke="#5D6778" stroke-width="1.75" stroke-linecap="round" stroke-linejoin="round"/>
</svg>
