<svg width="21" height="20" viewBox="0 0 21 20" fill="none" xmlns="http://www.w3.org/2000/svg">
<path d="M9.66667 3.33333H3.83334C3.39131 3.33333 2.96739 3.50892 2.65483 3.82148C2.34227 4.13404 2.16667 4.55797 2.16667 4.99999V16.6667C2.16667 17.1087 2.34227 17.5326 2.65483 17.8452C2.96739 18.1577 3.39131 18.3333 3.83334 18.3333H15.5C15.942 18.3333 16.366 18.1577 16.6785 17.8452C16.9911 17.5326 17.1667 17.1087 17.1667 16.6667V10.8333" stroke="#27364B" stroke-width="1.75" stroke-linecap="round" stroke-linejoin="round"/>
<path d="M15.9167 2.08333C16.2482 1.75181 16.6978 1.56557 17.1667 1.56557C17.6355 1.56557 18.0852 1.75181 18.4167 2.08333C18.7482 2.41485 18.9344 2.86449 18.9344 3.33333C18.9344 3.80217 18.7482 4.25181 18.4167 4.58333L10.5 12.5L7.16667 13.3333L8.00001 10L15.9167 2.08333Z" stroke="#27364B" stroke-width="1.75" stroke-linecap="round" stroke-linejoin="round"/>
</svg>
