<svg width="20" height="21" viewBox="0 0 20 21" fill="none" xmlns="http://www.w3.org/2000/svg">
<path d="M17.5004 10.0833C17.5033 11.1832 17.2463 12.2682 16.7504 13.25C16.1625 14.4264 15.2586 15.416 14.14 16.1077C13.0214 16.7995 11.7323 17.1662 10.4171 17.1667C9.31721 17.1695 8.23219 16.9126 7.25043 16.4167L3.50043 17L4.08376 13.25C3.58787 12.2682 3.3309 11.1832 3.33376 10.0833C3.33427 8.76812 3.70094 7.47904 4.3927 6.36045C5.08445 5.24187 6.07398 4.33797 7.25043 3.74999C8.23219 3.2541 9.31721 2.99713 10.4171 2.99999H10.8338C12.5707 3.09582 14.2113 3.82896 15.4414 5.05904C16.6715 6.28912 17.4046 7.9297 17.5004 9.66666V10.0833Z" stroke="#5D6778" stroke-width="1.75" stroke-linecap="round" stroke-linejoin="round"/>
</svg>
