<svg width="40" height="40" viewBox="0 0 40 40" fill="none" xmlns="http://www.w3.org/2000/svg">
<rect width="40" height="40" rx="20" fill="#3971FF"/>
<path d="M24.4768 11.3486L18.2039 7.5551C17.6118 7.19293 16.9387 7.00151 16.2531 7.00032C14.2093 7.00032 12.3346 8.71226 12.3346 11.105V25.3073L24.4768 17.9669C26.9081 16.4947 26.9081 12.82 24.4768 11.3486ZM15.8483 18.448V10.8679L22.1162 14.6567L15.8483 18.448Z" fill="white"/>
<path d="M27.8488 32.9845C27.8488 33.0273 15.9907 32.966 15.9907 32.966L14.9432 32.8426C13.2466 32.644 11.9441 31.1233 12.0018 29.3346C12.0018 29.2918 12.0055 29.2519 12.008 29.2103C12.0546 28.4365 12.326 27.6961 12.7857 27.0885C12.9724 26.8461 13.2008 26.6426 13.459 26.4883L22.478 21.0725C24.3413 19.9535 25.893 19.562 26.6998 17.5341C26.9973 16.7757 27.1258 15.9562 27.0756 15.1379L27.0444 14.5866L27.965 19.9205C28.0829 20.8264 27.9012 21.7537 27.421 22.5169C27.1325 22.9785 26.7474 23.3653 26.295 23.6479L15.8294 28.8943C15.819 28.9006 15.8088 28.9075 15.7991 28.9149C15.5126 29.1293 15.6894 29.6069 16.0402 29.5867L24.7514 29.6403C26.4431 29.5417 27.8524 31.2112 27.8488 32.9845Z" fill="white"/>
</svg>
